<svg width="429" height="67" viewBox="0 0 429 67" fill="none" xmlns="http://www.w3.org/2000/svg">
<g clip-path="url(#clip0_12_59)">
<path d="M55.9664 6.95874C42.6833 6.9596 31.9208 17.7253 31.9208 31.0044L31.9192 58.0525L83.0147 6.95874H55.9664Z" fill="#D3D6DB"/>
<path d="M87.6983 41.5753C78.3059 32.1845 63.0807 32.1845 53.6916 41.5728L34.5654 60.698L106.823 60.7005L87.6983 41.5753Z" fill="#D3D6DB"/>
<path d="M14.9576 44.5577L28.4483 58.0475L28.4499 7.08173L14.9576 20.574C8.33527 27.1981 8.33688 37.9362 14.9576 44.5577Z" fill="#D3D6DB"/>
<path d="M0 48.3088C0 55.0609 5.47318 60.534 12.2226 60.5332L25.9742 60.5324L0.00162693 34.5598L0 48.3088Z" fill="#D3D6DB"/>
<path d="M187.6 54.5797C188.258 55.1551 188.258 55.8957 187.519 56.6347C181.436 63.0471 173.134 66.9094 163.27 66.9094C145.021 66.9094 129.896 52.2786 129.896 33.6196C129.896 14.9606 145.021 0 163.27 0C172.969 0 181.517 3.86338 187.682 10.3572C188.422 11.0962 188.422 11.836 187.764 12.3291L182.504 16.6027C181.846 17.1789 181.271 17.1789 180.613 16.5213C177.078 12.8224 170.995 8.95907 163.598 8.95907C148.802 8.95907 139.184 21.2891 139.184 33.6187C139.184 46.0308 148.802 57.9496 163.598 57.9496C170.913 57.9496 176.832 54.2506 180.366 50.6337C181.024 49.8939 181.681 49.8125 182.339 50.3049L187.6 54.5797ZM237.166 64.6083C237.33 65.5125 237.084 66.3345 236.344 66.3345H231.001C228.864 66.3345 227.796 64.9379 227.796 63.0473V41.6753C227.796 36.2503 224.015 33.1266 218.588 33.1266C213.821 33.1266 209.957 35.346 206.67 38.5515V65.0207C206.67 65.2673 206.588 65.5138 206.506 65.6782C206.342 65.9248 206.177 66.0892 206.013 66.1714C205.766 66.2536 205.602 66.335 205.355 66.335H198.944C198.204 66.335 197.711 65.7596 197.711 65.0206V26.9615V26.7149V7.56218C197.711 4.7674 197.3 3.5344 197.053 2.30163C196.89 1.39661 197.136 0.574626 197.958 0.574626H203.548C205.438 0.574626 206.671 1.80763 206.671 3.53381V30.0019C209.877 27.5352 214.152 25.0692 219.823 25.0692C228.208 25.0692 236.673 30.4132 236.673 40.6879V58.9362C236.756 61.2378 236.92 62.9642 237.166 64.6083ZM281.142 64.5252C280.074 56.4698 279.994 48.9904 280.322 41.0999C280.733 31.4003 275.39 25.1533 265.362 25.1533C258.786 25.1533 251.963 27.1261 247.936 29.3455C247.196 29.7565 246.703 30.4955 247.031 31.2353L249.086 36.0028C249.415 36.8248 249.991 37.0714 251.059 36.5782C256.32 34.1944 260.594 33.0437 264.786 33.0437C269.225 33.0437 271.855 34.7698 271.691 39.4551C256.484 42.0846 244.894 44.7971 244.894 55.4831C244.894 62.6346 250.073 66.7438 258.457 66.7438C265.445 66.7438 269.061 64.6074 272.513 61.977C272.923 64.443 273.663 66.3336 275.307 66.3336H280.239C280.978 66.3336 281.224 65.4294 281.142 64.5252ZM260.019 59.6763C256.648 59.6763 254.018 58.5255 254.018 55.4019C254.018 50.3878 263.223 48.7437 271.527 47.0177C271.444 49.7302 271.444 53.3471 271.527 55.7308C268.814 57.7858 264.211 59.6763 260.019 59.6763ZM314.186 63.7041C314.433 64.3617 313.941 64.771 313.365 65.1821C311.968 66.0862 308.926 66.7438 305.885 66.7438C297.089 66.7438 293.884 62.2229 293.884 51.6193V34.2751H289.034C288.294 34.2751 287.719 33.7819 287.719 32.9599V31.5624C287.719 30.9049 287.883 30.4125 288.376 29.9185C293.144 26.0551 296.925 22.0284 300.213 13.7251C300.46 13.1497 300.706 12.8209 301.117 12.8209H302.022C302.679 12.8209 302.926 13.1497 302.926 13.8895V25.6439H311.557C312.297 25.6439 312.954 26.2201 312.954 27.0421V32.9603C312.954 33.7001 312.297 34.2755 311.557 34.2755H304.405C303.748 34.2755 303.172 34.1933 302.844 34.0289V50.7975C302.844 55.5651 303.419 58.2778 307.447 58.2778C309.173 58.2778 310.324 58.0312 311.31 57.7846C312.297 57.538 312.954 57.949 313.119 58.854L314.186 63.7041ZM345.094 63.7041C345.34 64.3617 344.848 64.771 344.272 65.1821C342.875 66.0862 339.834 66.7438 336.792 66.7438C327.996 66.7438 324.791 62.2229 324.791 51.6193V34.2751H319.941C319.201 34.2751 318.626 33.7819 318.626 32.9599V31.5624C318.626 30.9049 318.79 30.4125 319.283 29.9185C324.051 26.0551 327.832 22.0284 331.12 13.7251C331.367 13.1497 331.613 12.8209 332.024 12.8209H332.929C333.586 12.8209 333.833 13.1497 333.833 13.8895V25.6439H342.464C343.204 25.6439 343.861 26.2201 343.861 27.0421V32.9603C343.861 33.7001 343.204 34.2755 342.464 34.2755H335.312C334.655 34.2755 334.079 34.1933 333.751 34.0289V50.7975C333.751 55.5651 334.326 58.2778 338.354 58.2778C340.08 58.2778 341.231 58.0312 342.217 57.7846C343.204 57.538 343.861 57.949 344.026 58.854L345.094 63.7041ZM386.359 49.3182C389.317 49.3182 391.371 47.8386 391.371 44.3865C391.371 34.2761 383.562 25.0693 371.561 25.0693C360.136 25.0693 351.176 34.1112 351.176 45.9481C351.176 58.2772 360.547 66.7439 372.055 66.7439C379.371 66.7439 385.124 63.7847 388.659 59.0173C389.153 58.3597 388.988 57.8665 388.496 57.2089L386.934 55.1539C386.277 54.3327 385.619 54.4141 384.796 54.9073C382.167 57.0445 377.81 58.8537 373.042 58.8537C366.302 58.8537 361.534 54.7437 360.63 49.3185L386.359 49.3182ZM360.63 42.3311C360.958 38.3855 364.657 33.2892 371.398 33.2892C378.22 33.2892 381.755 38.4678 382.001 42.3311H360.63ZM428.115 27.7008C429.02 28.2762 429.266 28.7686 428.69 29.6728L425.321 34.6045C424.91 35.1799 424.334 35.3443 423.594 35.1799C421.868 34.3579 420.389 33.6181 417.676 33.6181C414.964 33.6181 410.689 34.7689 408.387 39.8651V65.019C408.387 65.758 407.894 66.3333 407.154 66.3333H400.661C399.921 66.3333 399.428 65.758 399.428 65.019V26.9599C399.428 26.2208 400.003 25.6446 400.661 25.6446H405.181C407.154 25.6446 408.387 27.6996 408.387 29.1792V29.7554C411.264 27.125 414.717 25.3167 419.238 25.3167C423.43 25.3167 426.554 26.6322 428.115 27.7008Z" fill="white"/>
</g>
<defs>
<clipPath id="clip0_12_59">
<rect width="429" height="66.9094" fill="white"/>
</clipPath>
</defs>
</svg>
