<svg width="370" height="58" viewBox="0 0 370 58" fill="none" xmlns="http://www.w3.org/2000/svg">
<g clip-path="url(#clip0_12_75)">
<path d="M48.2557 6C36.8026 6.00074 27.5229 15.2832 27.5229 26.7328L27.5215 50.0543L71.5774 6H48.2557Z" fill="#111111"/>
<path d="M75.6157 35.8472C67.5173 27.7503 54.3897 27.7503 46.2942 35.8451L29.8032 52.3353L92.1052 52.3375L75.6157 35.8472Z" fill="#111111"/>
<path d="M12.8968 38.4188L24.5288 50.0501L24.5302 6.10605L12.8968 17.7394C7.18686 23.4509 7.18825 32.7096 12.8968 38.4188Z" fill="#111111"/>
<path d="M0 41.6531C0 47.4749 4.71911 52.194 10.5387 52.1933L22.3957 52.1926L0.00140278 29.7983L0 41.6531Z" fill="#111111"/>
<path d="M161.753 47.06C162.32 47.5561 162.321 48.1947 161.683 48.8319C156.439 54.3608 149.28 57.691 140.775 57.691C125.041 57.691 112 45.076 112 28.9877C112 12.8994 125.041 0 140.775 0C149.138 0 156.509 3.3311 161.824 8.93022C162.462 9.56742 162.462 10.2053 161.895 10.6305L157.359 14.3153C156.792 14.8121 156.296 14.8121 155.729 14.2451C152.682 11.0558 147.437 7.72474 141.058 7.72474C128.301 7.72474 120.008 18.356 120.008 28.9869C120.008 39.6889 128.301 49.9656 141.058 49.9656C147.366 49.9656 152.469 46.7762 155.516 43.6576C156.083 43.0198 156.65 42.9496 157.217 43.3741L161.753 47.06ZM204.491 55.7069C204.632 56.4865 204.42 57.1953 203.782 57.1953H199.175C197.333 57.1953 196.411 55.9911 196.411 54.361V35.9335C196.411 31.256 193.151 28.5626 188.472 28.5626C184.362 28.5626 181.03 30.4762 178.196 33.2401V56.0625C178.196 56.2751 178.126 56.4877 178.055 56.6294C177.913 56.8421 177.771 56.9838 177.629 57.0547C177.417 57.1255 177.275 57.1957 177.062 57.1957H171.534C170.897 57.1957 170.471 56.6996 170.471 56.0624V23.2469V23.0343V6.52031C170.471 4.11058 170.117 3.04745 169.904 1.98452C169.763 1.2042 169.976 0.495457 170.685 0.495457H175.504C177.134 0.495457 178.197 1.55859 178.197 3.04694V25.8684C180.961 23.7415 184.647 21.6153 189.537 21.6153C196.766 21.6153 204.066 26.223 204.066 35.0822V50.8163C204.137 52.8008 204.278 54.2894 204.491 55.7069ZM242.408 55.6353C241.487 48.6897 241.418 42.2408 241.701 35.4373C242.055 27.0741 237.448 21.6878 228.802 21.6878C223.132 21.6878 217.249 23.3888 213.776 25.3024C213.138 25.6568 212.713 26.294 212.997 26.9318L214.769 31.0426C215.052 31.7513 215.548 31.9639 216.47 31.5387C221.005 29.4833 224.691 28.4911 228.306 28.4911C232.133 28.4911 234.401 29.9794 234.259 34.0192C221.147 36.2864 211.154 38.6252 211.154 47.8389C211.154 54.0051 215.619 57.5482 222.848 57.5482C228.873 57.5482 231.991 55.7061 234.968 53.4382C235.321 55.5644 235.959 57.1945 237.377 57.1945H241.629C242.266 57.1945 242.479 56.4149 242.408 55.6353ZM224.195 51.4545C221.289 51.4545 219.021 50.4622 219.021 47.769C219.021 43.4456 226.958 42.028 234.117 40.5398C234.046 42.8787 234.046 45.9972 234.117 48.0525C231.778 49.8243 227.809 51.4545 224.195 51.4545ZM270.9 54.9273C271.112 55.4943 270.688 55.8472 270.191 56.2016C268.987 56.9812 266.364 57.5482 263.742 57.5482C256.158 57.5482 253.394 53.6501 253.394 44.5075V29.5528H249.212C248.575 29.5528 248.078 29.1276 248.078 28.4188V27.2139C248.078 26.647 248.22 26.2224 248.645 25.7965C252.756 22.4654 256.016 18.9934 258.851 11.8341C259.064 11.338 259.277 11.0545 259.631 11.0545H260.411C260.978 11.0545 261.19 11.338 261.19 11.9759V22.1108H268.632C269.27 22.1108 269.837 22.6076 269.837 23.3164V28.4192C269.837 29.0571 269.27 29.5532 268.632 29.5532H262.466C261.899 29.5532 261.403 29.4823 261.119 29.3406V43.7989C261.119 47.9096 261.616 50.2486 265.088 50.2486C266.577 50.2486 267.569 50.036 268.42 49.8234C269.27 49.6107 269.837 49.9651 269.979 50.7454L270.9 54.9273ZM297.548 54.9273C297.761 55.4943 297.336 55.8472 296.84 56.2016C295.635 56.9812 293.013 57.5482 290.391 57.5482C282.807 57.5482 280.043 53.6501 280.043 44.5075V29.5528H275.861C275.223 29.5528 274.727 29.1276 274.727 28.4188V27.2139C274.727 26.647 274.869 26.2224 275.294 25.7965C279.405 22.4654 282.665 18.9934 285.5 11.8341C285.713 11.338 285.925 11.0545 286.28 11.0545H287.059C287.626 11.0545 287.839 11.338 287.839 11.9759V22.1108H295.281C295.919 22.1108 296.486 22.6076 296.486 23.3164V28.4192C296.486 29.0571 295.919 29.5532 295.281 29.5532H289.115C288.548 29.5532 288.052 29.4823 287.768 29.3406V43.7989C287.768 47.9096 288.264 50.2486 291.737 50.2486C293.226 50.2486 294.218 50.036 295.068 49.8234C295.919 49.6107 296.486 49.9651 296.628 50.7454L297.548 54.9273ZM333.128 42.5234C335.679 42.5234 337.45 41.2477 337.45 38.2711C337.45 29.5537 330.717 21.6154 320.37 21.6154C310.518 21.6154 302.793 29.4116 302.793 39.6176C302.793 50.2481 310.872 57.5483 320.795 57.5483C327.103 57.5483 332.064 54.9968 335.112 50.8862C335.538 50.3192 335.396 49.8939 334.971 49.327L333.625 47.5551C333.058 46.847 332.491 46.9172 331.781 47.3425C329.514 49.1852 325.758 50.7451 321.647 50.7451C315.835 50.7451 311.724 47.2014 310.945 42.5237L333.128 42.5234ZM310.944 36.499C311.228 33.097 314.417 28.7028 320.228 28.7028C326.111 28.7028 329.159 33.1679 329.371 36.499H310.944ZM369.132 23.8843C369.912 24.3804 370.124 24.805 369.627 25.5846L366.722 29.8369C366.368 30.333 365.872 30.4747 365.234 30.333C363.745 29.6243 362.47 28.9864 360.131 28.9864C357.792 28.9864 354.107 29.9786 352.122 34.3727V56.061C352.122 56.6982 351.697 57.1943 351.059 57.1943H345.46C344.822 57.1943 344.397 56.6982 344.397 56.061V23.2455C344.397 22.6083 344.893 22.1115 345.46 22.1115H349.358C351.059 22.1115 352.122 23.8833 352.122 25.1591V25.6559C354.603 23.3879 357.579 21.8287 361.477 21.8287C365.092 21.8287 367.785 22.963 369.132 23.8843Z" fill="#111111"/>
</g>
<defs>
<clipPath id="clip0_12_75">
<rect width="369.895" height="57.691" fill="white"/>
</clipPath>
</defs>
</svg>
